<svg width="166" height="82" viewBox="0 0 166 82" fill="none" xmlns="http://www.w3.org/2000/svg">
<path d="M1.32426 58.985L1.38105 57.9987L3.74482 16.9425L3.803 15.932L4.81272 16.0024L16.3332 16.8056L17.0579 16.8562L17.2339 17.561L21.0462 32.8287L25.5395 17.5216L25.7355 16.854L26.4295 16.8056L37.95 16.0024L38.9597 15.932L39.0179 16.9425L40.633 44.9962C41.5517 42.3917 43.2088 40.5178 45.6792 39.5261L45.6815 39.5252C46.3531 39.2575 47.0434 39.0398 47.7522 38.8711L41.7581 38.3056L40.5547 38.1921L40.8917 37.0312L41.0982 36.3198L41.1007 36.3113L41.1033 36.3028C42.2666 32.5466 44.3292 29.889 47.3632 28.5263C50.2581 27.226 53.2638 26.8811 56.3296 27.4451C59.3643 27.9991 61.8439 29.1493 63.6544 30.9854L63.6773 31.0086L63.6986 31.0332C63.7145 31.0516 63.7304 31.07 63.7462 31.0885L63.2557 26.2812L63.153 25.2753L64.16 25.1838L67.7643 24.8561L67.5884 19.4421L67.5556 18.4311L68.5669 18.4099L79.4907 18.1804L80.5076 18.159L80.5117 19.1761L80.5302 23.7107L87.2263 23.1182L88.2301 23.0293L88.3112 24.0338L88.9066 31.4095C91.8757 28.7766 95.4215 27.4517 99.5005 27.4517C101.363 27.4517 103.083 27.7178 104.65 28.2649L105.221 28.4646L105.309 29.0638L106.548 37.5091L106.704 38.5666L105.638 38.6512C104.232 38.7628 103.264 38.8931 101.895 39.2623L101.894 39.2626C99.9294 39.7908 98.1719 40.7372 96.6158 42.0701C95.5044 43.277 95.071 44.2042 95.0279 44.8705C94.9907 45.4437 95.2333 46.026 96.1031 46.634C97.8804 47.8761 100.703 48.1988 104.824 47.2031L106.712 46.5738L107.843 46.1965L108.017 47.3767L108.145 48.2441M1.32426 58.985L135.485 45.3193M1.32426 58.985L2.30984 59.0537L13.8303 59.857L14.8407 59.9274L14.8983 58.9163L15.4169 49.8127M1.32426 58.985L15.4169 49.8127M108.145 48.2441L107.634 18.2104L107.618 17.2707L108.555 17.1965L119.571 16.3244L120.65 16.239V17.3213V32.4014C126.046 30.7747 130.273 31.0261 132.788 33.867C135.298 36.6542 136.485 40.526 136.485 45.3175M108.145 48.2441L108.277 56.0021L108.336 56.4038C108.319 56.4167 108.301 56.4295 108.284 56.4423L108.305 57.6521C108.517 57.5089 108.727 57.3598 108.935 57.2047L109.293 56.937L109.281 56.2646L109.276 55.9204L108.145 48.2441ZM136.485 45.3175C136.485 45.3181 136.485 45.3187 136.485 45.3193H135.485M136.485 45.3175C136.485 45.3164 136.485 45.3154 136.485 45.3144L135.485 45.3193M136.485 45.3175C136.508 50.0181 136.066 54.4922 135.202 58.7154L135.039 59.5151H134.223H124.882H123.816L123.884 58.451C124.047 55.9237 124.302 53.502 124.699 51.1431L124.701 51.1341L124.703 51.1252C125.364 47.5924 125.413 45.1303 124.978 43.6501L124.975 43.6383L124.975 43.6383C124.909 43.4021 124.813 43.2967 124.719 43.2347C124.61 43.1622 124.399 43.0813 124.004 43.0835C123.272 43.0875 122.169 43.3749 120.65 44.0535M135.485 45.3193C135.508 49.9551 135.072 54.3613 134.223 58.5151H125.884C125.883 58.5365 125.882 58.5579 125.88 58.5792L124.882 58.5151V57.5151H124.952C125.113 55.375 125.348 53.3162 125.686 51.3091C126.351 47.752 126.443 45.0898 125.938 43.3687C125.456 41.6475 123.345 41.6475 119.65 43.4146M120.65 44.0535V43.4146H119.65M120.65 44.0535C120.466 44.1355 120.277 44.2231 120.081 44.3167L119.65 43.4146M120.65 44.0535L119.65 58.4233V43.4146M119.65 17.3213V18.3244L119.729 18.3182L119.65 17.3213ZM119.65 17.3213H118.65V17.4005L119.65 17.3213ZM107.028 47.5225L107.344 48.4711L107.176 48.5272L107.028 47.5225ZM107.028 47.5225L106.039 47.6682L106.064 47.8436L107.028 47.5225ZM105.559 37.6543L104.57 37.7995L104.562 37.7458C104.878 37.7117 105.206 37.6823 105.559 37.6543ZM105.559 37.6543L105.48 36.6574C105.458 36.6592 105.436 36.661 105.414 36.6627L105.559 37.6543ZM88.6914 32.9956C88.7351 32.9509 88.779 32.9065 88.823 32.8624C88.8847 32.8005 88.9468 32.7393 89.0091 32.6787L87.9775 32.2953C87.9831 32.2897 87.9886 32.284 87.9941 32.2784L87.9957 32.3105L88.5764 32.8823L88.6914 32.9956ZM88.6914 32.9956L88.5756 32.8824L87.9959 32.3159L88.0259 32.9268L87.3345 32.9826M88.6914 32.9956C88.4736 33.2168 88.2639 33.4413 88.0623 33.6691C87.9835 33.7581 87.906 33.8476 87.8297 33.9376L87.3345 32.9826M15.4169 49.8127C15.4519 49.9541 15.4869 50.0962 15.5219 50.239L15.523 50.2435C16.0982 52.5443 16.6534 54.6504 17.2339 56.5775L17.4652 57.3453L18.2649 57.2864L24.1857 56.8503L24.8712 56.7999L25.0697 56.1419C25.848 53.5625 26.5605 50.7341 27.208 47.6581L27.8645 58.9176L27.9234 59.9273L28.9323 59.857L40.4529 59.0537L41.4384 58.985L41.3816 57.9987L41.1894 54.6594C41.9689 55.9785 43.0775 57.1222 44.5072 58.0829L44.5321 58.0997L44.5579 58.1149C46.6725 59.3587 48.9722 59.9344 51.4114 59.8358C53.3656 59.7762 55.2587 59.4726 57.0882 58.9242L57.2011 59.7518L57.3356 60.7383L58.3226 60.6081L67.5482 59.3918L68.5859 59.255L68.4019 58.2246L68.2905 57.6006C67.9563 55.2087 67.7981 52.4426 67.8208 49.3427V49.3423C67.844 45.9295 67.6584 42.6241 67.2155 39.3821C67.0096 37.7935 66.6389 36.3322 66.1018 34.9987L68.1055 34.8956L68.9425 59.1234L68.9756 60.0821L69.9349 60.0888L79.7342 60.1577L80.7466 60.1648L80.7412 59.1524L80.6086 34.2917L86.4951 34.003C84.3385 36.8416 83.2622 40.1393 83.2622 43.8506L15.4169 49.8127ZM87.3345 32.9826C87.3413 32.9749 87.3481 32.9673 87.3549 32.9597L87.0266 32.9758L87.0291 33.0072L87.3345 32.9826ZM109.323 58.6987L109.296 57.6991L109.306 57.6988L109.323 58.6987ZM109.323 58.6987L110.323 58.6817L110.322 58.6721L109.323 58.6987ZM55.75 38.0662C55.9476 38.3666 56.0728 38.6539 56.1352 38.9326C54.5093 38.5889 52.9473 38.4209 51.4522 38.4339C52.5757 37.271 53.415 36.9799 54.0011 37.0422C54.8034 37.1276 55.3521 37.4613 55.75 38.0662ZM53.6464 48.6667C54.2009 48.5403 54.8807 48.4416 55.6937 48.3756L55.8612 51.1381C55.0971 51.3192 54.3936 51.2962 53.7112 51.0873C52.7377 50.7893 52.1943 50.3754 51.9015 49.9279C51.7988 49.7568 51.8165 49.6881 51.8209 49.671L51.8212 49.6698C51.832 49.6266 51.8903 49.4777 52.1815 49.2465L52.1843 49.2442C52.4153 49.0595 52.8656 48.8446 53.6464 48.6667ZM138.824 32.81L137.855 32.9558L137.982 33.9282C138.32 36.525 138.617 40.4616 138.869 45.8025C139.12 51.1092 139.028 56.1096 138.574 60.8057L138.574 60.8109C138.36 63.1501 137.983 64.9432 137.47 66.2324C136.982 67.4591 136.415 68.1277 135.85 68.4454C135.176 68.5751 134.335 68.4182 133.268 67.7782C132.093 67.073 130.986 66.1651 129.904 65.0829C128.797 63.9756 127.975 63.0637 127.387 62.3225L126.805 61.5905L126.036 62.121L117.981 67.6748L117.293 68.1492L117.637 68.9107C119.529 73.0855 122.137 76.1999 125.488 78.1723C128.838 80.1443 132.843 80.9243 137.441 80.5797L137.473 80.5774L137.504 80.5731C140.231 80.1957 142.573 79.2315 144.491 77.6557C146.406 76.0814 147.846 73.9385 148.837 71.2799C150.768 66.0994 151.723 60.2184 151.746 53.6305C151.769 47.1144 151.539 41.3249 151.077 36.2181C150.963 34.6881 150.872 33.3199 150.804 32.1129L150.742 31.0173L149.656 31.1806L138.824 32.81ZM152.638 59.0718L152.666 60.0565L153.652 60.0429L161.936 59.9281L162.874 59.9151L162.921 58.9779L164.183 33.619L164.235 32.5717L163.187 32.5693L152.906 32.5464L151.874 32.5441L151.904 33.5752L152.638 59.0718Z" fill="white" stroke="black" stroke-width="2"/>
<path d="M162.716 11.2791C164.22 18.2997 159.748 25.2113 152.728 26.7158C145.707 28.2203 138.796 23.7487 137.291 16.728C135.787 9.70738 140.259 2.79589 147.279 1.29132L162.716 11.2791ZM162.716 11.2791C161.211 4.25854 154.3 -0.21392 147.279 1.29131L162.716 11.2791Z" fill="#FFCB4C" stroke="black" stroke-width="2"/>
<path d="M157.529 8.00831C158.048 10.4325 156.504 12.8194 154.08 13.3388C151.656 13.8582 149.269 12.3141 148.749 9.88982C148.229 7.46559 149.773 5.07869 152.198 4.55931C154.622 4.03993 157.009 5.58341 157.529 8.00831Z" fill="#F4F7F9"/>
<path d="M152.876 9.55244C153.626 9.55244 154.234 8.94439 154.234 8.19431C154.234 7.44424 153.626 6.83618 152.876 6.83618C152.126 6.83618 151.518 7.44424 151.518 8.19431C151.518 8.94439 152.126 9.55244 152.876 9.55244Z" fill="#292F33"/>
<path d="M147.397 11.522C147.701 12.9394 146.798 14.3349 145.38 14.6389C143.963 14.943 142.567 14.0395 142.263 12.6221C141.959 11.2046 142.863 9.80914 144.28 9.50511C145.698 9.20108 147.093 10.1045 147.397 11.522Z" fill="#F4F7F9"/>
<path d="M145.102 13.8378C145.801 13.688 146.247 12.9997 146.097 12.3005C145.947 11.6013 145.259 11.1559 144.559 11.3057C143.86 11.4556 143.415 12.1439 143.565 12.8431C143.714 13.5423 144.403 13.9877 145.102 13.8378Z" fill="#292F33"/>
<path d="M150.422 15.9591C148.06 16.4651 146.434 16.5258 144.415 16.5645C143.954 16.5745 143.111 16.8438 143.391 18.1479C143.949 20.7555 147.644 23.3731 151.82 22.4784C155.995 21.5836 158.292 17.6819 157.733 15.0743C157.454 13.7702 156.574 13.8689 156.15 14.0502C154.292 14.8416 152.784 15.453 150.422 15.9591Z" fill="#65471B"/>
<path d="M145.338 18.004V22.0044C145.338 24.0045 146.672 26.0047 149.339 26.0047C152.006 26.0047 153.339 24.0045 153.339 22.0044V18.004H145.338Z" fill="#E8596E"/>
<path d="M149.339 23.2571C149.539 23.2571 149.702 23.0944 149.702 22.8937V18.6967H148.975V22.8937C148.975 23.0944 149.138 23.2571 149.339 23.2571Z" fill="#DD2F45"/>
<path d="M144.694 17.8686C144.694 17.8686 146.79 18.1013 150.701 17.2632C154.613 16.4251 156.429 15.3537 156.429 15.3537C156.429 15.3537 155.685 18.2406 151.121 19.2187C146.557 20.1968 144.694 17.8686 144.694 17.8686Z" fill="white"/>
</svg>
